<svg width="220" height="91" fill="none" xmlns="http://www.w3.org/2000/svg"><path d="M46.443 58.238c4.305 14.44 9.303 27.56 26.936 30.615l-.139.972c-16.59-2.013-25.755-17.494-30.615-31.934-3.401-9.927-5.623-22.91-10.205-33.809L20.55 63.931 7.498 20.54c-.833-2.776-2.222-4.234-4.166-5.136h9.72c-1.39.416-2.153 2.013-2.153 3.748 0 .486.07.972.209 1.458l10.76 35.891 10.066-33.6C24.992 7.56 15.134 2.353 1.874.826V.2C24.16 1.728 34.711 17.765 40.751 37.967l5.276 18.605 10.76-36.03c.14-.486.209-.972.209-1.389 0-2.29-2.153-3.47-3.471-3.748h9.44c-1.388.277-4.234 1.388-5.275 4.929L46.443 58.238zM88.52 15.196c13.537 0 24.506 10.969 24.506 24.506 0 13.538-10.969 24.506-24.506 24.506-13.538 0-24.506-10.968-24.506-24.506 0-13.537 10.968-24.506 24.506-24.506zm4.026 48.18h.07c11.107-1.875 18.188-14.44 16.036-27.075-2.152-12.635-12.912-22.007-24.02-20.133C73.524 18.043 66.305 30.4 68.457 43.035c2.152 12.634 12.982 22.215 24.09 20.34zm51.972-48.18c13.538 0 24.506 10.969 24.506 24.506 0 13.538-10.968 24.506-24.506 24.506-13.537 0-24.506-10.968-24.506-24.506 0-13.537 10.969-24.506 24.506-24.506zm4.027 48.18h.069c11.108-1.875 18.189-14.44 16.037-27.075-2.152-12.635-12.913-22.007-24.02-20.133-11.108 1.875-18.328 14.232-16.176 26.867 2.153 12.634 12.982 22.215 24.09 20.34zm25.702-47.971h16.522c13.399 0 25.131 10.899 25.131 24.297C215.9 53.101 205.001 64 191.602 64h-17.355c1.735-.555 3.124-1.805 3.124-5.068v-38.39c0-3.263-1.389-4.582-3.124-5.138zm6.525 47.692h6.734c15.482 0 24.298-10.413 24.298-23.395s-8.816-23.464-24.298-23.464h-6.734v46.86z" fill="#588077"/><path d="M77.198 68.997c.23-.162.358-.15.381.035.047.185-.023.358-.208.52a14.891 14.891 0 01-4.443 2.465c-1.62.578-3.31.868-5.068.868-.254 0-.567-.035-.937-.105a3.176 3.176 0 01-1.007-.312 2.567 2.567 0 01-.833-.66c-.208-.3-.312-.682-.312-1.145 0-.023.011-.139.035-.347 0-.208.023-.428.069-.66.046-.23.116-.44.208-.624.093-.209.232-.313.417-.313.185-.023.3.058.347.243.07.162.104.336.104.52 0 .232-.023.51-.07.834-.022.3-.034.532-.034.694 0 .232.07.44.208.625.162.162.347.3.556.416.231.116.486.209.763.278.278.047.544.07.799.07.67 0 1.388-.081 2.152-.243a18.414 18.414 0 002.36-.73c.81-.3 1.597-.659 2.36-1.075a16.26 16.26 0 002.153-1.354zm-10.483-1.354c-.232 0-.452-.092-.66-.277a1.02 1.02 0 01-.278-.695v-.07a1.36 1.36 0 01.105-.277.957.957 0 01.277-.243c.14-.092.324-.139.556-.139.185 0 .358.116.52.348.162.208.243.474.243.798a.45.45 0 01-.243.416c-.162.07-.335.116-.52.14zm21.716 1.354c.185-.116.336-.127.451-.035.14.093.07.232-.208.417-.509.324-1.088.66-1.736 1.006-.647.347-1.319.671-2.013.972-.67.301-1.353.544-2.048.73a7.685 7.685 0 01-1.978.277c-.347 0-.625-.046-.833-.139a1.872 1.872 0 01-.451-.382 2.196 2.196 0 01-.209-.486 3.988 3.988 0 01-.035-.486c0-.046.012-.127.035-.243a2.33 2.33 0 00.035-.381c0-.14-.012-.255-.035-.347-.023-.116-.07-.174-.139-.174-.092 0-.22.07-.381.208l-.486.486a8.696 8.696 0 01-.486.451c-.162.14-.29.209-.382.209-.139 0-.243-.035-.313-.105a.763.763 0 01-.138-.312 2.34 2.34 0 01-.035-.382v-.347c0-.208.011-.428.035-.66.023-.254.127-.404.312-.45.254 0 .393.15.416.45.047.278.07.649.07 1.111.162-.162.37-.358.625-.59.254-.254.555-.382.902-.382.278 0 .486.07.625.209.162.139.29.312.382.52.092.209.15.428.173.66.024.231.035.44.035.625 0 .139.081.231.243.277.185.024.359.035.52.035.464 0 .996-.08 1.597-.243a17.277 17.277 0 003.784-1.493c.625-.347 1.18-.682 1.666-1.006zm22.264.208a55.555 55.555 0 01-2.881 1.979 32.634 32.634 0 01-3.158 1.735c-1.065.533-2.106.96-3.124 1.285-.995.347-1.886.52-2.673.52-.787 0-1.412-.208-1.875-.624a4.472 4.472 0 01-1.04-1.528 7.953 7.953 0 01-.452-1.978c-.07-.694-.104-1.33-.104-1.91 0-.786.08-1.77.243-2.95.162-1.203.405-2.464.729-3.783a36.368 36.368 0 011.284-3.992c.509-1.32 1.11-2.51 1.805-3.575.717-1.065 1.516-1.921 2.395-2.569a4.938 4.938 0 013.02-1.007c.555 0 .995.105 1.319.313.324.185.578.428.763.729.186.277.301.601.348.972.069.37.104.729.104 1.076 0 1.689-.313 3.32-.937 4.894a17.827 17.827 0 01-2.5 4.373 18.814 18.814 0 01-3.54 3.506 17.517 17.517 0 01-4.2 2.326c0 .694.023 1.354.07 1.978.046.625.161 1.18.346 1.667.209.463.498.833.868 1.11.37.278.891.417 1.562.417.88 0 1.817-.174 2.812-.52a22.807 22.807 0 003.02-1.285 39.32 39.32 0 002.881-1.7 142.41 142.41 0 002.568-1.667c.208-.139.347-.162.417-.07.069.093.046.186-.07.278zm-5.588-18.084c-.926 0-1.782.324-2.569.972-.763.624-1.458 1.446-2.082 2.464-.602 1.018-1.146 2.175-1.632 3.471a48.557 48.557 0 00-1.215 3.819 54.521 54.521 0 00-.868 3.644 94.958 94.958 0 00-.486 2.916 24.495 24.495 0 001.528-.729c.463-.231.948-.52 1.458-.868.902-.625 1.805-1.411 2.707-2.36a21.084 21.084 0 002.499-3.194 18.217 18.217 0 001.84-3.679c.463-1.296.694-2.58.694-3.853 0-.81-.15-1.446-.451-1.909-.301-.463-.775-.694-1.423-.694zm17.344 17.876c.231-.162.358-.15.381.035.047.185-.023.358-.208.52a14.891 14.891 0 01-4.443 2.465c-1.62.578-3.309.868-5.068.868-.254 0-.567-.035-.937-.105a3.175 3.175 0 01-1.006-.312 2.563 2.563 0 01-.833-.66c-.209-.3-.313-.682-.313-1.145 0-.023.012-.139.035-.347 0-.208.023-.428.069-.66a2.49 2.49 0 01.209-.624c.092-.209.231-.313.416-.313.185-.023.301.058.347.243.07.162.104.336.104.52 0 .232-.023.51-.069.834a9.85 9.85 0 00-.035.694c0 .232.07.44.208.625.162.162.348.3.556.416.231.116.486.209.763.278.278.047.544.07.799.07.671 0 1.388-.081 2.152-.243a18.415 18.415 0 002.36-.73c.81-.3 1.597-.659 2.361-1.075a16.31 16.31 0 002.152-1.354zm-10.483-1.354c-.231 0-.451-.092-.66-.277a1.02 1.02 0 01-.277-.695v-.07c.023-.092.058-.184.104-.277a.95.95 0 01.278-.243c.138-.092.324-.139.555-.139.185 0 .359.116.521.348.162.208.243.474.243.798a.45.45 0 01-.243.416c-.162.07-.336.116-.521.14zm28.589 1.354c.278-.185.463-.22.555-.104.116.115.047.266-.208.451a12.148 12.148 0 01-2.603 1.389 20.34 20.34 0 01-2.985.902 27.38 27.38 0 01-3.124.451c-1.042.093-2.06.14-3.055.14h-1.249a23.34 23.34 0 01-1.215-.105c.416.764.763 1.597 1.041 2.5.301.902.544 1.827.729 2.776.208.972.347 1.944.416 2.916.093.995.139 1.955.139 2.88 0 .464-.034 1.112-.104 1.945a9.6 9.6 0 01-.451 2.43 5.077 5.077 0 01-1.146 2.082c-.509.602-1.226.902-2.152.902-.925 0-1.666-.3-2.221-.902-.556-.602-.972-1.365-1.25-2.29a12.835 12.835 0 01-.59-2.951 34.812 34.812 0 01-.139-2.986c0-1.596.093-3.332.278-5.206.162-1.851.451-3.726.868-5.623a38.822 38.822 0 011.597-5.623 26.63 26.63 0 013.471-6.457 9.62 9.62 0 011.145-1.388c.44-.44.903-.81 1.389-1.111.509-.3 1.029-.451 1.562-.451.3 0 .543.08.728.243.209.139.359.324.452.555.115.208.185.44.208.694.046.255.069.498.069.73a8.396 8.396 0 01-.937 3.54 13.724 13.724 0 01-2.187 3.193 20.217 20.217 0 01-2.915 2.708 26.398 26.398 0 01-3.09 2.048 92.772 92.772 0 00-1.319 6.595 43.254 43.254 0 00-.555 6.907c0 .903.058 1.794.174 2.673.092.88.266 1.666.52 2.36.255.695.602 1.25 1.042 1.666.462.44 1.029.66 1.7.66.695 0 1.25-.22 1.667-.66.439-.416.775-.96 1.006-1.63a8.597 8.597 0 00.451-2.153c.093-.764.139-1.481.139-2.152 0-1.203-.092-2.43-.277-3.68a26.731 26.731 0 00-.729-3.644c-.116-.394-.243-.822-.382-1.284a8.088 8.088 0 00-.451-1.32 4.306 4.306 0 00-.591-1.076c-.208-.3-.462-.486-.763-.555l-.382-.07a22.005 22.005 0 00-.555-.208c-.255-.115-.382-.347-.382-.694 0-.231.081-.416.243-.555a.922.922 0 01.555-.208c.37 0 .694.162.972.486.278.3.474.555.59.763.926.139 1.886.208 2.881.208.81 0 1.701-.023 2.673-.069.972-.07 1.955-.197 2.95-.382a23.363 23.363 0 003.02-.833 11.25 11.25 0 002.777-1.423zm-15.065 2.43a.992.992 0 00-.173-.209 1.186 1.186 0 00-.243-.243.783.783 0 00-.278-.138c-.092-.023-.162 0-.208.07-.046.045 0 .161.139.346.162.162.416.22.763.174zm-1.041-5.658c-.116.416-.243.88-.382 1.388-.139.486-.266.938-.381 1.354.439-.278.948-.636 1.527-1.076.601-.44 1.215-.937 1.839-1.493a22.913 22.913 0 001.875-1.805 19.488 19.488 0 001.631-2.082 11.9 11.9 0 001.18-2.291 6.655 6.655 0 00.452-2.395c0-.532-.116-.903-.347-1.111-.209-.231-.428-.347-.66-.347-.139 0-.243.011-.312.035-.764.254-1.481.74-2.152 1.458a13.95 13.95 0 00-1.84 2.499 25.242 25.242 0 00-1.423 2.985 31.16 31.16 0 00-1.007 2.88zm22.995 3.401a9.676 9.676 0 01-.798.486c-.371.186-.822.37-1.354.556-.509.185-1.076.347-1.701.486a8.935 8.935 0 01-1.944.208c-.324 0-.648-.093-.972-.278-.301-.185-.451-.462-.451-.833 0-.324.116-.59.347-.798.231-.208.486-.347.764-.417.277-.069.532-.057.763.035.232.07.347.232.347.486 0 .255-.104.417-.312.486-.208.07-.37.104-.486.104a3.05 3.05 0 01-.555-.035c-.093.325-.012.544.243.66.277.093.59.139.937.139.74 0 1.573-.127 2.499-.382.949-.254 1.747-.613 2.395-1.076.208-.139.324-.15.347-.035.023.093 0 .162-.069.209zm-6.318 0c-.046.07-.023.116.07.14.116.022.231.034.347.034.139-.023.266-.046.382-.07.116-.046.173-.092.173-.138 0-.07-.046-.116-.138-.139a.474.474 0 00-.313-.035.928.928 0 00-.347.07c-.093.023-.15.07-.174.139z" fill="#373826"/></svg>